<svg xmlns="http://www.w3.org/2000/svg" width="168" height="17.623" viewBox="0 0 168 17.623">
  <g id="Logo" transform="translate(-5.667 -6.384)">
    <g id="Groupe_1" data-name="Groupe 1" transform="translate(5.667 6.384)">
      <path id="Tracé_1" data-name="Tracé 1" d="M24.695,8.138V25.079H21.243V14.6a6.033,6.033,0,0,1,.08-.8l-4.5,8.711a1.371,1.371,0,0,1-.562.6,1.409,1.409,0,0,1-.8.2H14.9a1.41,1.41,0,0,1-.8-.2,1.372,1.372,0,0,1-.562-.6L9.039,13.8c.04.281.04.522.08.8V25.079H5.667V8.138H8.678c.161,0,.321.04.442.04a.783.783,0,0,1,.321.04.716.716,0,0,1,.281.2,2.228,2.228,0,0,1,.241.321L14.3,17.331c.161.281.321.6.482.923.12.321.281.642.4.963.12-.321.281-.682.4-1,.161-.321.321-.6.482-.923L20.4,8.74a2.206,2.206,0,0,1,.241-.321,1.055,1.055,0,0,1,.241-.2,1.11,1.11,0,0,1,.361-.04c.12,0,.281-.04.442-.04Zm7.547,4.7a7.269,7.269,0,0,1,2.529.442A5.49,5.49,0,0,1,36.7,14.521a5.325,5.325,0,0,1,1.244,1.927,7.328,7.328,0,0,1,.442,2.569,7.729,7.729,0,0,1-.442,2.609A5.322,5.322,0,0,1,36.7,23.553,5.485,5.485,0,0,1,34.771,24.8a6.442,6.442,0,0,1-2.529.442,6.375,6.375,0,0,1-2.489-.442,5.376,5.376,0,0,1-3.211-3.171,6.859,6.859,0,0,1-.442-2.609,6.522,6.522,0,0,1,.442-2.569,5.376,5.376,0,0,1,3.211-3.171,7.212,7.212,0,0,1,2.489-.442Zm0,9.755a2.128,2.128,0,0,0,1.847-.883,4.793,4.793,0,0,0,.6-2.649,4.852,4.852,0,0,0-.6-2.69,2.444,2.444,0,0,0-3.693,0,4.852,4.852,0,0,0-.6,2.69,4.793,4.793,0,0,0,.6,2.649,2.127,2.127,0,0,0,1.847.883Zm10.8-8.27.723-.6c.241-.16.522-.321.8-.482a6.239,6.239,0,0,1,.924-.281,4.473,4.473,0,0,1,1.084-.12A3.9,3.9,0,0,1,48.3,13.2a3.3,3.3,0,0,1,1.285.924,4.826,4.826,0,0,1,.8,1.485,6.557,6.557,0,0,1,.241,1.807v7.667H47.055V17.411a2.209,2.209,0,0,0-.4-1.365,1.514,1.514,0,0,0-1.2-.482,2.691,2.691,0,0,0-1.124.241,4.928,4.928,0,0,0-1,.682v8.591H39.749V13.035h2.208a.838.838,0,0,1,.883.6Z" transform="translate(-5.667 -7.616)" fill="#7daf3f"/>
      <path id="Tracé_2" data-name="Tracé 2" d="M548.029,25.876a5.5,5.5,0,0,1,1.285-1.525A2.749,2.749,0,0,1,551,23.789a2.081,2.081,0,0,1,1.325.4l-.241,2.65c-.04.16-.08.281-.2.321a.49.49,0,0,1-.361.12,1.421,1.421,0,0,0-.241-.04,1,1,0,0,1-.321-.04h-.321a.882.882,0,0,0-.321-.04,1.81,1.81,0,0,0-1.245.442,3.3,3.3,0,0,0-.8,1.164v7.306H544.7V24.03h2.128a1.506,1.506,0,0,1,.442.04.65.65,0,0,1,.281.16c.12.04.161.12.2.241s.08.241.12.4Z" transform="translate(-384.324 -18.611)" fill="#4d302b"/>
      <path id="Tracé_3" data-name="Tracé 3" d="M515.08,24.32V14.725l-.763-.16a1.524,1.524,0,0,1-.682-.281.673.673,0,0,1-.241-.562V12.277h1.686v-.683a4.591,4.591,0,0,1,.361-1.847,3.88,3.88,0,0,1,.923-1.445,4.842,4.842,0,0,1,1.525-.923,6.372,6.372,0,0,1,2.007-.321,5.009,5.009,0,0,1,.843.08,2.886,2.886,0,0,1,.763.161l-.08,1.726a.622.622,0,0,1-.08.321.484.484,0,0,1-.2.2c-.08.04-.2.08-.281.12-.12,0-.2.04-.321.04a2.733,2.733,0,0,0-.843.08,1.447,1.447,0,0,0-.6.321,1.18,1.18,0,0,0-.4.642,3.127,3.127,0,0,0-.121.963v.562h2.81v2.489h-2.69V24.32Z" transform="translate(-362.335 -6.857)" fill="#4d302b"/>
      <path id="Tracé_4" data-name="Tracé 4" d="M495.854,54.226a1.63,1.63,0,0,1,.161-.763,1.685,1.685,0,0,1,1.044-1.044,1.8,1.8,0,0,1,.8-.16,1.694,1.694,0,0,1,.8.16,1.923,1.923,0,0,1,.683.4,3.65,3.65,0,0,1,.441.642,2.338,2.338,0,0,1,.121.763,2.589,2.589,0,0,1-.121.8,3.65,3.65,0,0,1-.441.642,2.789,2.789,0,0,1-.683.4,2.382,2.382,0,0,1-.8.16,2.6,2.6,0,0,1-.8-.16,3.466,3.466,0,0,1-.642-.4,2.154,2.154,0,0,1-.4-.642,1.8,1.8,0,0,1-.161-.8Z" transform="translate(-350.013 -38.61)" fill="#4d302b"/>
      <path id="Tracé_5" data-name="Tracé 5" d="M474.13,25.876a4.892,4.892,0,0,1,1.284-1.525,2.72,2.72,0,0,1,1.646-.562,1.939,1.939,0,0,1,1.325.4l-.241,2.65c-.04.16-.08.281-.161.321a.559.559,0,0,1-.361.12c-.08,0-.161-.04-.241-.04a.783.783,0,0,1-.321-.04h-.321a1,1,0,0,0-.321-.04,1.915,1.915,0,0,0-1.284.442,3.257,3.257,0,0,0-.763,1.164v7.306h-3.613V24.03h2.128a1.373,1.373,0,0,1,.442.04.808.808,0,0,1,.321.16c.08.04.12.12.2.241.04.12.04.241.08.4Z" transform="translate(-332.384 -18.611)" fill="#4d302b"/>
      <path id="Tracé_6" data-name="Tracé 6" d="M438.365,24.6V36.642h-2.248a.869.869,0,0,1-.883-.6l-.2-.723a4.782,4.782,0,0,1-.722.6,3.281,3.281,0,0,1-.8.482,3.242,3.242,0,0,1-.883.281,5,5,0,0,1-1.084.12,4.778,4.778,0,0,1-1.766-.321,4.326,4.326,0,0,1-1.285-.963,4.145,4.145,0,0,1-.763-1.445,5.4,5.4,0,0,1-.281-1.846V24.6h3.613v7.627a1.981,1.981,0,0,0,.4,1.365,1.373,1.373,0,0,0,1.2.522,2.086,2.086,0,0,0,1.084-.281,3.189,3.189,0,0,0,1-.683V24.6Z" transform="translate(-301.958 -19.18)" fill="#4d302b"/>
      <path id="Tracé_7" data-name="Tracé 7" d="M388.827,30.788a3.2,3.2,0,0,0,.883,2.168,2.7,2.7,0,0,0,1.927.682,2.943,2.943,0,0,0,1.084-.16,3.713,3.713,0,0,0,.8-.321c.241-.12.442-.241.642-.321a1.178,1.178,0,0,1,.642-.161.781.781,0,0,1,.642.321l1.044,1.285a5.928,5.928,0,0,1-1.2,1.044,9.647,9.647,0,0,1-1.325.6,5.192,5.192,0,0,1-1.365.321,7.119,7.119,0,0,1-1.285.08,6.521,6.521,0,0,1-2.368-.4,5.6,5.6,0,0,1-1.927-1.2,6.006,6.006,0,0,1-1.325-2.047,7.483,7.483,0,0,1-.482-2.81,6.241,6.241,0,0,1,.4-2.288,5.823,5.823,0,0,1,1.2-1.887,6.094,6.094,0,0,1,1.847-1.285,6.257,6.257,0,0,1,2.489-.482,6.534,6.534,0,0,1,2.208.361,6.078,6.078,0,0,1,1.686,1.084,4.945,4.945,0,0,1,1.124,1.766,6.886,6.886,0,0,1,.4,2.328c0,.241-.04.482-.04.642a2.5,2.5,0,0,1-.12.4.465.465,0,0,1-.281.2.862.862,0,0,1-.4.08Zm4.5-2.087a5.984,5.984,0,0,0-.08-.843,2.039,2.039,0,0,0-.362-.723,1.821,1.821,0,0,0-.682-.522,2.282,2.282,0,0,0-.964-.2,2.09,2.09,0,0,0-1.606.6,2.763,2.763,0,0,0-.763,1.686Z" transform="translate(-272.291 -18.705)" fill="#4d302b"/>
      <path id="Tracé_8" data-name="Tracé 8" d="M371.469,8.512a2.6,2.6,0,0,1-.16.8,1.936,1.936,0,0,1-.482.642,2.281,2.281,0,0,1-.723.482,2.623,2.623,0,0,1-.843.161,3.124,3.124,0,0,1-.843-.161,2.447,2.447,0,0,1-.642-.482,1.931,1.931,0,0,1-.482-.642,1.8,1.8,0,0,1-.161-.8,1.974,1.974,0,0,1,.161-.843,2.634,2.634,0,0,1,.482-.682,3.636,3.636,0,0,1,.642-.442,2.1,2.1,0,0,1,.843-.16,1.865,1.865,0,0,1,.843.16,3.156,3.156,0,0,1,.723.442,2.643,2.643,0,0,1,.482.682,2.865,2.865,0,0,1,.16.843Z" transform="translate(-259.59 -6.384)" fill="#4d302b"/>
      <rect id="Rectangle_1" data-name="Rectangle 1" width="3.613" height="12.043" transform="translate(107.905 5.419)" fill="#4d302b"/>
      <path id="Tracé_9" data-name="Tracé 9" d="M341.632,25.876a5.49,5.49,0,0,1,1.285-1.525,2.749,2.749,0,0,1,1.686-.562,2.082,2.082,0,0,1,1.325.4l-.241,2.65a.561.561,0,0,1-.562.442c-.08,0-.16-.04-.241-.04a.882.882,0,0,1-.321-.04h-.321a.884.884,0,0,0-.321-.04,1.809,1.809,0,0,0-1.245.442,2.861,2.861,0,0,0-.8,1.164v7.306H338.26V24.03h2.168a1.5,1.5,0,0,1,.442.04.65.65,0,0,1,.281.16.411.411,0,0,1,.2.241c.04.12.08.241.12.4Z" transform="translate(-239.307 -18.611)" fill="#4d302b"/>
      <path id="Tracé_10" data-name="Tracé 10" d="M297.712,30.788a3.407,3.407,0,0,0,.923,2.168,2.7,2.7,0,0,0,1.927.682,3.081,3.081,0,0,0,1.084-.16,4.784,4.784,0,0,0,.8-.321c.241-.12.442-.241.642-.321a1.177,1.177,0,0,1,.642-.161.78.78,0,0,1,.642.321l1.044,1.285a5.919,5.919,0,0,1-1.2,1.044,9.68,9.68,0,0,1-1.325.6,5.593,5.593,0,0,1-1.365.321,7.122,7.122,0,0,1-1.285.08,6.522,6.522,0,0,1-2.369-.4,5.244,5.244,0,0,1-1.927-1.2,6.012,6.012,0,0,1-1.325-2.047,7.489,7.489,0,0,1-.482-2.81,6.248,6.248,0,0,1,.4-2.288,5.829,5.829,0,0,1,1.2-1.887,5.634,5.634,0,0,1,1.847-1.285,6.677,6.677,0,0,1,4.656-.12,5.748,5.748,0,0,1,1.726,1.084,4.946,4.946,0,0,1,1.124,1.766,6.887,6.887,0,0,1,.4,2.328c0,.241-.04.482-.04.642a2.5,2.5,0,0,1-.12.4.465.465,0,0,1-.281.2,1.007,1.007,0,0,1-.4.08Zm4.536-2.087a5.984,5.984,0,0,0-.08-.843,2.032,2.032,0,0,0-.361-.723,2.21,2.21,0,0,0-.683-.522,2.424,2.424,0,0,0-.963-.2,2.089,2.089,0,0,0-1.606.6,2.763,2.763,0,0,0-.763,1.686Z" transform="translate(-208.313 -18.705)" fill="#4d302b"/>
      <path id="Tracé_11" data-name="Tracé 11" d="M270.349,28.556a4.274,4.274,0,0,1-1.485-.241,3.011,3.011,0,0,1-1.124-.723,2.949,2.949,0,0,1-.682-1.084,4.2,4.2,0,0,1-.2-1.445V18.841h-1.044a.741.741,0,0,1-.482-.2.694.694,0,0,1-.2-.522v-1.4l1.927-.361.723-2.931a.679.679,0,0,1,.763-.562h1.887v3.493H273.4v2.489h-2.971v5.981a1.244,1.244,0,0,0,.2.683.784.784,0,0,0,.6.281c.12,0,.241-.04.321-.04l.241-.12c.08-.04.12-.04.2-.08a.3.3,0,0,1,.2-.04.571.571,0,0,1,.241.08c.08.04.12.12.2.241l1.084,1.686a4.808,4.808,0,0,1-1.566.8,6.558,6.558,0,0,1-1.807.241Z" transform="translate(-187.934 -10.933)" fill="#4d302b"/>
      <path id="Tracé_12" data-name="Tracé 12" d="M234.22,36.642h-3.452a.986.986,0,0,1-.6-.2,2.094,2.094,0,0,1-.4-.442l-2.128-3.693a1.418,1.418,0,0,1-.16.361.806.806,0,0,1-.161.321L225.549,36c-.12.161-.241.281-.361.442a.986.986,0,0,1-.6.2h-3.171l4.014-6.222L221.575,24.6h3.452a1.86,1.86,0,0,1,.562.08.945.945,0,0,1,.321.361l2.128,3.532a1.879,1.879,0,0,1,.2-.4,1.874,1.874,0,0,1,.2-.4L230,25.081a.945.945,0,0,1,.321-.361.808.808,0,0,1,.442-.12h3.292l-3.854,5.66Z" transform="translate(-157.225 -19.18)" fill="#4d302b"/>
      <path id="Tracé_13" data-name="Tracé 13" d="M192.169,15.036v-2.85H181.611v2.85Z" transform="translate(-129.264 -10.46)" fill="#7daf3f"/>
      <path id="Tracé_14" data-name="Tracé 14" d="M192.168,40.332h-7.507V36.6h7.507v-2.69H181.611v9.273h10.558Z" transform="translate(-129.264 -25.719)" fill="#4d302b"/>
    </g>
    <path id="Tracé_15" data-name="Tracé 15" d="M314.989,7.714l-2.929,3.034a1.458,1.458,0,0,1-.457.342,1.481,1.481,0,0,1-.585.1H309.1l1.621-2.825a1.288,1.288,0,0,1,.422-.486,1.411,1.411,0,0,1,.758-.162Z" transform="translate(-213.153 -0.934)" fill="#4d302b"/>
  </g>
</svg>
